<?xml version="1.0" encoding="utf-8"?>
<!-- Generator: Adobe Illustrator 25.0.0, SVG Export Plug-In . SVG Version: 6.00 Build 0)  -->
<svg version="1.1" id="Camada_1" xmlns="http://www.w3.org/2000/svg" xmlns:xlink="http://www.w3.org/1999/xlink" x="0px" y="0px"
	 viewBox="0 0 980 490" style="enable-background:new 0 0 980 490;" xml:space="preserve">
<style type="text/css">
	.st0{fill:#0A1128;}
	.st1{fill:#696931;}
	.st2{fill:#905329;}
	.st3{fill:#FFFFFF;fill-opacity:0.59;}
	.st4{stroke:#000000;stroke-miterlimit:10;}
</style>
<rect class="st0" width="980" height="490"/>
<path class="st1" d="M675.3,450.1c1.5-0.7,15.2-5.3,15.7-4.6c0.3,0.4-2.4,14.6-2.8,15C688,460.7,678.3,452.9,675.3,450.1z
	 M751.1,140.3c0-0.1-3-5.8-4.3-8.7c-0.1-0.2-0.2-0.7-0.2-1c-0.1-0.2-0.2-0.4-0.4-0.6c-0.2-0.1-0.4-0.1-0.5,0.1l-8,7.5l0,0
	c-0.1,0.1-0.2,0.3-0.2,0.5c0,0.2,0,0.4,0.1,0.6c0.1,0.1,0.9,1.5,1.3,2.2c1.5,2.3,4,7.4,4,7.5c0.1,0.2,0.2,0.3,0.4,0.4
	c0.2,0,0.3-0.1,0.4-0.2c0,0,1.1-1.5,1.7-2.2c0.9-1,1.8-2,2.8-2.9c0.7-0.7,1-0.9,1.3-1c0.3-0.2,0.7-0.3,1.5-1.2
	C751.2,141.1,751.3,140.6,751.1,140.3z M20.2,471.8L20.2,471.8c0-0.4-0.3-0.7-0.7-0.7c-0.1,0-0.2,0-0.2,0.1c-1,0.1-8.8,0.1-13.6,0
	c-0.2,0-0.4,0.1-0.6,0.2c-0.1,0.1-0.2,0.3-0.2,0.6c0,0.1,0,3,0.1,3.6l0.2,8.3c0,0.2,0.1,0.4,0.2,0.6c0.1,0.1,0.3,0.2,0.5,0.2h0.1
	c4.5-0.4,9-0.6,13.5-0.4c0.2,0,0.4-0.1,0.6-0.2c0.1-0.1,0.2-0.4,0.2-0.6C20.2,479.8,20.2,475.4,20.2,471.8z"/>
<path class="st2" d="M104.8,234.8c0.8-1.5,8.8-13.5,9.6-13.2c0.5,0.2,7,13,7,13.5C121.3,235.3,109,235.2,104.8,234.8z M365.3,436
	c-0.1-0.1-4.1-5-5.9-7.7c-0.1-0.2-0.3-0.6-0.4-0.9c-0.1-0.2-0.2-0.4-0.4-0.5c-0.2-0.1-0.4,0-0.5,0.2l-6.4,9l0,0
	c-0.1,0.1-0.1,0.3-0.1,0.6c0,0.2,0.1,0.4,0.2,0.6c0.1,0.1,1.1,1.3,1.7,1.9c1.9,1.9,5.4,6.4,5.5,6.5c0.1,0.2,0.3,0.2,0.5,0.2
	s0.3-0.1,0.4-0.3c0,0,0.7-1.7,1.2-2.5c0.7-1.2,1.4-2.3,2.1-3.4c0.6-0.9,0.8-1,1-1.2c0.3-0.2,0.6-0.4,1.3-1.5
	C365.6,436.8,365.5,436.3,365.3,436z M445.6,110.2L445.6,110.2c0.4,0.1,0.8-0.1,0.9-0.5c0-0.1,0-0.1,0-0.2c0.1-0.9,1.7-7.7,2.8-11.9
	c0.1-0.2,0-0.4-0.1-0.5c-0.1-0.2-0.3-0.2-0.5-0.3c-0.1,0-2.9-0.7-3.5-0.8l-8.2-1.7c-0.2-0.1-0.4,0-0.6,0.1c-0.1,0.1-0.2,0.2-0.3,0.4
	v0.1c-0.5,4-1.3,8-2.4,11.9c-0.1,0.2,0,0.4,0.1,0.6c0.1,0.2,0.3,0.2,0.5,0.3C437.8,108.4,442,109.3,445.6,110.2z M446.2,109.1
	c-0.1-0.1-0.1-0.1-0.2-0.1C446.1,109,446.1,109,446.2,109.1z"/>
<g>
	<path class="st3" d="M428.5,289.5c-0.9,0-1.7-0.5-2.1-1.4c-0.5-1.2,0-2.6,1.2-3.1c2.3-1,4.2-2.9,5.1-5.2c1-2.3,1-5,0.1-7.3
		c-0.2-0.6-0.5-1.1-0.7-1.7c-0.5-1-1.1-2.3-1.4-3.6c-0.6-2.5-0.1-5.3,1.2-7.8c1-1.9,2.5-3.7,4.7-5.6c1-0.9,2.4-0.7,3.2,0.2
		c0.9,1,0.7,2.5-0.2,3.2c-1.7,1.5-2.9,2.9-3.6,4.3c-0.9,1.6-1.2,3.2-0.8,4.7c0.2,0.9,0.6,1.7,1,2.6c0.3,0.7,0.6,1.3,0.9,2
		c1.3,3.4,1.2,7.4-0.2,10.8c-1.4,3.4-4.2,6.2-7.5,7.7C429.1,289.5,428.8,289.5,428.5,289.5z M453.5,258.1c0.9-0.1,1.8,0.3,2.3,1.2
		c0.7,1.1,0.2,2.6-0.9,3.2c-2.3,1.3-3.9,3.4-4.7,5.8c-0.7,2.5-0.5,5.1,0.7,7.4c0.2,0.6,0.6,1,1,1.7c0.6,1,1.3,2.1,1.8,3.5
		c0.9,2.4,0.7,5.3-0.4,8.1c-0.9,2.1-2.1,4-4.2,6.2c-0.9,1-2.4,1-3.4,0.1c-1-0.9-1-2.4-0.1-3.3c1.6-1.7,2.6-3.2,3.2-4.7
		c0.7-1.7,0.8-3.4,0.3-4.8c-0.3-0.8-0.8-1.7-1.3-2.5c-0.4-0.6-0.8-1.3-1.2-2c-1.7-3.3-2.1-7.3-1-10.9c1.1-3.6,3.6-6.7,6.9-8.6
		C452.9,258.2,453.2,258.1,453.5,258.1z M160,361.9c3.5,4.2,5.5,9.6,5.8,13.7c0.3,4.5-1.5,10-6.2,12.5c-1.8,0.9-4.1,1.3-6.9,1.3
		c-4.8-0.1-7.9-1.8-9.4-5.1c-1.3-2.9-1.4-7,1.1-9.7c2-2.1,4.8-2.5,6.9-1c0.7,0.6,0.9,1.7,0.4,2.4c-0.6,0.7-1.7,0.9-2.4,0.4
		c-1.1-0.8-2.2,0.4-2.3,0.5c-1.5,1.6-1.3,4.3-0.5,6.1c0.9,2.1,2.9,3.1,6.4,3.1c2.2,0,3.9-0.3,5.3-1c2.9-1.5,4.7-5.3,4.4-9.2
		c-0.3-4.5-3.2-11.1-8-14.6c-2.6-1.9-5.2-2.5-7.9-1.9c-1.9,0.4-3.8,1.5-5.9,3.1c-4,3.1-7.2,7.2-8.7,11.6c-1.7,4.7-1.3,9.7,1.2,14.6
		c0.4,0.9,0.1,1.9-0.8,2.3c-0.9,0.4-1.9,0.1-2.3-0.8c-2.8-5.8-3.3-11.8-1.3-17.3c1.8-5,5.3-9.7,9.9-13.2c2.5-1.9,4.9-3.1,7.2-3.7
		c3.7-0.9,7.3,0,10.7,2.5C157.8,359.5,159,360.6,160,361.9z"/>
	<circle class="st3" cx="620.9" cy="94.3" r="4.3"/>
	<circle class="st3" cx="627.4" cy="80.9" r="4.3"/>
	<circle class="st3" cx="635.3" cy="91.2" r="4.3"/>
	<path class="st3" d="M924.1,182c-2.9-3.3-5.9-6.6-9.1-9.9c3.4-3.4,6.8-7,9.6-11.1c0.7-1,0.4-2.5-0.6-3.2c-1-0.7-2.5-0.4-3.2,0.6
		c-2.6,3.8-5.6,7.1-8.9,10.4c-2.9-3.1-5.9-6.1-9-9.1c-0.9-0.9-2.4-0.9-3.2,0c-0.9,0.9-0.9,2.4,0,3.2c3,2.9,5.9,6,8.9,9.1
		c-0.7,0.7-1.4,1.3-2.1,2c-2.5,2.3-5.1,4.8-7.6,7.3c-0.9,0.9-0.9,2.3,0,3.2l0,0c0.9,0.9,2.4,0.9,3.2-0.1c2.4-2.4,5-4.8,7.4-7.2
		c0.7-0.7,1.4-1.3,2.1-2c3,3.2,6,6.5,8.9,9.7c0.1,0.1,0.1,0.1,0.1,0.1c0.9,0.9,2.3,0.9,3.2,0.1C924.9,184.5,924.9,183,924.1,182z
		 M200.7,152.3l-0.2-1.6c-0.9-6.8-1.3-14.2-1.4-22.7c0-3.4,0-7,0.1-11.3c0-0.4,0-0.9,0-1.4c0-3.1,0-6.9,2.4-8.3
		c1.3-0.8,3.1-0.6,5.2,0.6c3.5,1.9,8.1,5.3,10.7,9.1c3.4,4.8,4.5,10.4,3.1,15.7c-2,7.5-9.2,19-18.4,19.7L200.7,152.3z M203.4,109.8
		c-0.1,0-0.2,0-0.2,0.1c-0.1,0.1-0.4,0.3-0.7,1.7c-0.2,1.2-0.2,2.6-0.2,3.9c0,0.5,0,1,0,1.5c-0.1,4.2-0.1,7.8-0.1,11.2
		c0.1,7.7,0.4,14.4,1.2,20.6c6.7-1.7,12.5-11.1,14.1-17c1.2-4.4,0.2-9.1-2.6-13l0,0c-2.4-3.4-6.7-6.5-9.7-8.1
		C204.3,109.9,203.7,109.8,203.4,109.8z M316.2,37.2c-0.1,0-0.1,0-0.2-0.1c-1.5-0.4-2.5-0.6-4.1-0.4c-0.4,0-0.8-0.3-0.9-0.7
		c0-0.4,0.3-0.8,0.7-0.9c1.9-0.1,3,0,4.7,0.5c0.4,0.1,0.7,0.6,0.6,1C316.8,37,316.5,37.2,316.2,37.2z M310,43.2
		c-0.3,0-0.6-0.2-0.7-0.5c-0.5-1.3-0.7-2.6-0.8-4c0-0.4,0.3-0.8,0.7-0.8c0.4,0,0.8,0.3,0.8,0.7c0.1,1.2,0.3,2.4,0.7,3.6
		c0.1,0.4-0.1,0.9-0.5,1C310.2,43.2,310,43.2,310,43.2z M302.6,39.4c-0.2,0-0.5-0.1-0.6-0.3c-0.2-0.4-0.2-0.9,0.1-1.1
		c1.1-0.9,2.3-1.6,3.6-2.2c0.4-0.2,0.9,0,1,0.4c0.2,0.4,0,0.9-0.4,1c-1.2,0.6-2.3,1.2-3.2,2C303,39.4,302.8,39.4,302.6,39.4z
		 M306.6,33.9c-0.3,0-0.6-0.2-0.7-0.4c-0.3-0.6-0.7-1.2-1.5-2.1c-0.2-0.2-0.4-0.6-0.7-0.9c-0.2-0.4-0.2-0.9,0.1-1.1
		c0.4-0.2,0.9-0.2,1.1,0.1s0.5,0.6,0.7,0.9c0.8,1,1.3,1.6,1.7,2.4c0.2,0.4,0,0.9-0.4,1C306.8,33.9,306.7,33.9,306.6,33.9z
		 M310.4,33.7c-0.2,0-0.3-0.1-0.5-0.1c-0.4-0.2-0.4-0.7-0.2-1.1c0.7-1,1.4-2.1,2-3.2c0.2-0.4,0.7-0.6,1-0.3c0.4,0.2,0.6,0.7,0.3,1
		c-0.6,1.2-1.3,2.3-2.1,3.4C310.8,33.6,310.6,33.7,310.4,33.7z M630.4,234.5c-0.1,0-0.1,0-0.2-0.1c-1.5-0.4-2.5-0.6-4.1-0.4
		c-0.4,0-0.8-0.3-0.9-0.7c0-0.4,0.3-0.8,0.7-0.9c1.9-0.1,3,0,4.7,0.5c0.4,0.1,0.7,0.6,0.6,1C631.1,234.2,630.8,234.5,630.4,234.5z
		 M624.2,240.4c-0.3,0-0.6-0.2-0.7-0.5c-0.5-1.3-0.7-2.6-0.8-4c0-0.4,0.3-0.8,0.7-0.8c0.4,0,0.8,0.3,0.8,0.7
		c0.1,1.2,0.3,2.4,0.7,3.6c0.1,0.4-0.1,0.9-0.5,1C624.4,240.4,624.3,240.4,624.2,240.4z M616.8,236.7c-0.2,0-0.5-0.1-0.6-0.3
		c-0.2-0.4-0.2-0.9,0.1-1.1c1.1-0.9,2.3-1.6,3.6-2.2c0.4-0.2,0.9,0,1,0.4c0.2,0.4,0,0.9-0.4,1c-1.2,0.6-2.3,1.2-3.2,2
		C617.2,236.6,617,236.7,616.8,236.7z M620.8,231.1c-0.3,0-0.6-0.2-0.7-0.4c-0.3-0.6-0.7-1.2-1.5-2.1c-0.2-0.2-0.4-0.6-0.7-0.9
		c-0.2-0.4-0.2-0.9,0.1-1.1c0.4-0.2,0.9-0.2,1.1,0.1c0.2,0.3,0.5,0.6,0.7,0.9c0.8,1,1.3,1.6,1.7,2.4c0.2,0.4,0,0.9-0.4,1
		C621,231.1,620.9,231.1,620.8,231.1z M624.6,230.9c-0.2,0-0.3-0.1-0.5-0.1c-0.4-0.2-0.4-0.7-0.2-1.1c0.7-1,1.4-2.1,2-3.2
		c0.2-0.4,0.7-0.6,1-0.3c0.4,0.2,0.6,0.7,0.3,1c-0.6,1.2-1.3,2.3-2.1,3.4C625,230.8,624.8,230.9,624.6,230.9z M814.4,351.2
		c-0.9,0-1.8-0.1-2.8-0.4c-5.1-1.7-10.2-7.8-11.5-12.2c-0.2-0.9-0.4-1.8-0.6-2.7c-5,2-9.5,6.5-9.4,12.9c0,0.9-0.7,1.7-1.7,1.7l0,0
		c-0.9,0-1.7-0.7-1.7-1.7c-0.1-4.1,1.5-7.9,4.3-11c2.2-2.5,5.1-4.3,8.4-5.4c0.3-4,1.9-7.9,4.5-10.7c4.3-4.5,11.1-5.5,16.7-6.2
		l0.4-0.1c0.9-0.1,1.8,0.6,1.9,1.4c0.1,0.9-0.6,1.8-1.4,1.9l-0.4,0.1c-5.3,0.7-11.3,1.5-14.7,5.1c-1.8,2-3.1,4.7-3.5,7.6
		c4.8-0.6,10.8,0.8,14.9,3.5c2.6,1.8,4.3,4.8,4.4,7.8c0.1,2.6-1,5.1-3.2,6.8C817.8,350.6,816.2,351.2,814.4,351.2z M803,334.9
		c0.1,0.9,0.2,1.8,0.5,2.7c1,3.6,5.3,8.7,9.2,10c1.7,0.6,3.1,0.3,4.4-0.7c1.7-1.3,2-2.9,1.9-4c-0.1-2-1.2-3.9-2.9-5.1
		C812.6,335.3,807.1,334.2,803,334.9z"/>
</g>
<rect x="-6" y="-9.1" class="st4" width="1004.4" height="513"/>
</svg>
